<svg width="20" height="21" viewBox="0 0 20 21" fill="none" xmlns="http://www.w3.org/2000/svg">
<path d="M7.78477 4.05785L8.50973 5.09979C9.00828 4.89859 9.54102 4.79571 10.0786 4.79679C10.6616 4.79679 11.2216 4.91278 11.7185 5.13077L12.4835 4.04184C12.5145 3.99483 12.5775 3.98783 12.6255 4.01884L12.6405 4.03384C12.6885 4.06483 12.6965 4.12783 12.6645 4.17383L11.9235 5.23177C12.9955 5.76174 13.7604 6.74166 13.9184 7.8926H6.22985C6.38785 6.71767 7.1918 5.72273 8.29572 5.19276L7.58578 4.18282C7.57146 4.16057 7.56598 4.13377 7.57042 4.10768C7.57486 4.08159 7.5889 4.05811 7.60977 4.04185L7.62577 4.02585C7.68077 3.99584 7.75177 4.01086 7.78376 4.05785H7.78477ZM11.7655 5.99473C11.9785 5.99473 12.1525 6.16572 12.1525 6.36771C12.1525 6.5777 11.9785 6.74968 11.7655 6.74968C11.6637 6.75021 11.5658 6.71026 11.4934 6.63863C11.4211 6.567 11.3801 6.46954 11.3796 6.36771C11.3796 6.15772 11.5525 5.99473 11.7655 5.99473ZM8.45473 5.99473C8.66772 5.99473 8.8407 6.16572 8.8407 6.36771C8.8407 6.5777 8.66772 6.74968 8.45474 6.74968C8.40423 6.75007 8.35414 6.7405 8.30734 6.72151C8.26054 6.70251 8.21794 6.67447 8.18199 6.63899C8.14604 6.60351 8.11745 6.56128 8.09785 6.51473C8.07824 6.46818 8.06802 6.41822 8.06775 6.36771C8.07163 6.2676 8.11407 6.17288 8.1862 6.10336C8.25833 6.03384 8.35455 5.99492 8.45473 5.99473ZM4.76495 8.43758H4.93794C5.35592 8.43758 5.70289 8.87356 5.70289 9.40253V12.4983C5.70289 13.0283 5.35592 13.4633 4.93794 13.4633H4.76495C4.34698 13.4633 4 13.0273 4 12.4983V9.40253C4 8.87256 4.34698 8.43758 4.76495 8.43758ZM15.2663 8.45258H15.4393C15.8573 8.45258 16.2043 8.88855 16.2043 9.41752V12.5143C16.2043 13.0433 15.8573 13.4793 15.4393 13.4793H15.2663C14.8483 13.4793 14.5014 13.0433 14.5014 12.5143V9.41752C14.5014 8.88855 14.8483 8.45258 15.2663 8.45258ZM9.41666 15.2682V16.0111C9.41666 16.54 9.06968 16.976 8.65171 16.976H8.47772C8.05974 16.976 7.71376 16.54 7.71376 16.0111V15.2682H7.01181C6.80644 15.269 6.6091 15.1884 6.46294 15.0441C6.31678 14.8999 6.2337 14.7036 6.23185 14.4982V8.38958H13.9734V14.4992C13.9734 14.9192 13.6184 15.2692 13.1935 15.2692H12.5465V16.0351C12.5465 16.565 12.1995 17 11.7816 17H11.6076C11.1906 17 10.8436 16.564 10.8436 16.0351V15.2692H9.41668L9.41666 15.2682Z" fill="#9DA3AC"/>
</svg>
