<svg width="20" height="21" viewBox="0 0 20 21" fill="none" xmlns="http://www.w3.org/2000/svg">
<path d="M11.8699 5.69192C12.3117 5.12312 12.6459 4.31968 12.525 3.5C11.8023 3.55028 10.9583 4.01091 10.4667 4.61069C10.0172 5.15461 9.648 5.96261 9.79173 6.74776C10.5825 6.77315 11.3966 6.30084 11.8699 5.69141V5.69192ZM15.7713 13.4048C15.4549 14.1056 15.3035 14.4205 14.8967 15.0416C14.3279 15.909 13.527 16.9892 12.5352 16.9969C11.6535 17.007 11.426 16.4225 10.2305 16.4291C9.03451 16.4357 8.78413 17.008 7.90148 16.9999C6.90963 16.9898 6.15139 16.0162 5.58361 15.1483C3.99553 12.7242 3.82845 9.87922 4.8076 8.36478C5.50438 7.29066 6.60288 6.66295 7.63485 6.66295C8.68612 6.66295 9.34634 7.24038 10.2173 7.24038C11.0614 7.24038 11.5753 6.66142 12.7901 6.66142C13.7099 6.66142 14.6844 7.16319 15.3792 8.03112C13.104 9.27995 13.4727 12.5343 15.7702 13.4058V13.4048H15.7713Z" fill="#9DA3AC"/>
</svg>
